<?xml version="1.0" encoding="UTF-8"?><!DOCTYPE svg PUBLIC "-//W3C//DTD SVG 1.1//EN" "http://www.w3.org/Graphics/SVG/1.1/DTD/svg11.dtd"><svg xmlns="http://www.w3.org/2000/svg" xmlns:xlink="http://www.w3.org/1999/xlink"><symbol id="about" viewBox="0 0 128 128"><path d="M113.957 43.63A50.891 50.891 0 0013.138 55.052c.104 2.628.468 70.508.468 70.508l33.33-24.3a50.872 50.872 0 0067.021-57.63zM61.791 25.522a6.79 6.79 0 11-6.79 6.79 6.784 6.784 0 016.79-6.79zm9.913 57.005H56.302a3.44 3.44 0 01-2.446-1.015 3.486 3.486 0 01-1.015-2.445 3.442 3.442 0 013.46-3.46h2.16V53.23h-.416a4.052 4.052 0 01-.703-8.04c.156-.026 4.58-.884 8.066-1.587a3.492 3.492 0 014.163 3.435v28.567h2.133a3.46 3.46 0 110 6.92z" fill="currentColor"/></symbol><symbol id="avatar" viewBox="0 0 482.9 482.9"><path d="M239.7 260.2h3.2c29.3-.5 53-10.8 70.5-30.5 38.5-43.4 32.1-117.8 31.4-124.9-2.5-53.3-27.7-78.8-48.5-90.7C280.8 5.2 262.7.4 242.5 0h-1.7c-11.1 0-32.9 1.8-53.8 13.7-21 11.9-46.6 37.4-49.1 91.1-.7 7.1-7.1 81.5 31.4 124.9 17.4 19.7 41.1 30 70.4 30.5zm-75.1-152.9c0-.3.1-.6.1-.8 3.3-71.7 54.2-79.4 76-79.4h1.2c27 .6 72.9 11.6 76 79.4 0 .3 0 .6.1.8.1.7 7.1 68.7-24.7 104.5-12.6 14.2-29.4 21.2-51.5 21.4h-1c-22-.2-38.9-7.2-51.4-21.4-31.7-35.6-24.9-103.9-24.8-104.5z"/><path d="M446.8 383.6v-.3c0-.8-.1-1.6-.1-2.5-.6-19.8-1.9-66.1-45.3-80.9-.3-.1-.7-.2-1-.3-45.1-11.5-82.6-37.5-83-37.8-6.1-4.3-14.5-2.8-18.8 3.3-4.3 6.1-2.8 14.5 3.3 18.8 1.7 1.2 41.5 28.9 91.3 41.7 23.3 8.3 25.9 33.2 26.6 56 0 .9 0 1.7.1 2.5.1 9-.5 22.9-2.1 30.9-16.2 9.2-79.7 41-176.3 41-96.2 0-160.1-31.9-176.4-41.1-1.6-8-2.3-21.9-2.1-30.9 0-.8.1-1.6.1-2.5.7-22.8 3.3-47.7 26.6-56 49.8-12.8 89.6-40.6 91.3-41.7 6.1-4.3 7.6-12.7 3.3-18.8-4.3-6.1-12.7-7.6-18.8-3.3-.4.3-37.7 26.3-83 37.8-.4.1-.7.2-1 .3-43.4 14.9-44.7 61.2-45.3 80.9 0 .9 0 1.7-.1 2.5v.3c-.1 5.2-.2 31.9 5.1 45.3 1 2.6 2.8 4.8 5.2 6.3 3 2 74.9 47.8 195.2 47.8s192.2-45.9 195.2-47.8c2.3-1.5 4.2-3.7 5.2-6.3 5-13.3 4.9-40 4.8-45.2z"/></symbol><symbol id="chat" viewBox="0 0 473 473"><path d="M403.581 69.3c-44.7-44.7-104-69.3-167.2-69.3s-122.5 24.6-167.2 69.3c-86.4 86.4-92.4 224.7-14.9 318-7.6 15.3-19.8 33.1-37.9 42-8.7 4.3-13.6 13.6-12.1 23.2s8.9 17.1 18.5 18.6c4.5.7 10.9 1.4 18.7 1.4 20.9 0 51.7-4.9 83.2-27.6 35.1 18.9 73.5 28.1 111.6 28.1 61.2 0 121.8-23.7 167.4-69.3 44.7-44.7 69.3-104 69.3-167.2s-24.7-122.5-69.4-167.2zm-19.1 315.3c-67.5 67.5-172 80.9-254.2 32.6-5.4-3.2-12.1-2.2-16.4 2.1-.4.2-.8.5-1.1.8-27.1 21-53.7 25.4-71.3 25.4h-.1c20.3-14.8 33.1-36.8 40.6-53.9 1.2-2.9 1.4-5.9.7-8.7-.3-2.7-1.4-5.4-3.3-7.6-73.2-82.7-69.4-208.7 8.8-286.9 81.7-81.7 214.6-81.7 296.2 0 81.8 81.7 81.8 214.5.1 296.2z"/><circle cx="236.381" cy="236.5" r="16.6"/><circle cx="321.981" cy="236.5" r="16.6"/><circle cx="150.781" cy="236.5" r="16.6"/></symbol><symbol id="codepen" viewBox="0 0 24 24"><path d="M.455 16.512l10.969 7.314c.374.23.774.233 1.152 0l10.969-7.314c.281-.187.455-.522.455-.857V8.343c0-.335-.174-.67-.455-.857L12.576.173a1.044 1.044 0 00-1.152 0L.455 7.486A1.048 1.048 0 000 8.343v7.312c0 .335.174.67.455.857zm10.514 4.528l-8.076-5.384 3.603-2.411 4.473 2.987zm2.062 0v-4.808l4.473-2.987 3.603 2.411zm8.907-7.314l-2.585-1.727 2.585-1.728zM13.031 2.959l8.076 5.384-3.603 2.411-4.473-2.987zM12 9.561l3.643 2.438L12 14.437l-3.643-2.438zm-1.031-6.602v4.808l-4.473 2.987-3.603-2.411zm-8.906 7.314v-.001L4.648 12l-2.585 1.728z"/></symbol><symbol id="contacts" viewBox="0 0 22 18"><g fill="none" fill-rule="evenodd"><path d="M-1-4h24v24H-1z"/><path d="M16.5.5C14.55.5 12.45.9 11 2 9.55.9 7.45.5 5.5.5c-1.45 0-2.99.22-4.28.79C.49 1.62 0 2.33 0 3.14v11.28c0 1.3 1.22 2.26 2.48 1.94.98-.25 2.02-.36 3.02-.36 1.56 0 3.22.26 4.56.92.6.3 1.28.3 1.87 0 1.34-.67 3-.92 4.56-.92 1 0 2.04.11 3.02.36 1.26.33 2.48-.63 2.48-1.94V3.14c0-.81-.49-1.52-1.22-1.85C19.49.72 17.95.5 16.5.5zM20 13.23c0 .63-.58 1.09-1.2.98-.75-.14-1.53-.2-2.3-.2-1.7 0-4.15.65-5.5 1.5V4c1.35-.85 3.8-1.5 5.5-1.5.92 0 1.83.09 2.7.28.46.1.8.51.8.98v9.47z" fill="currentColor"/></g></symbol><symbol id="css3" viewBox="0 0 24 24"><path d="M1.5 0h21l-1.91 21.563L11.977 24l-8.565-2.438L1.5 0zm17.09 4.413L5.41 4.41l.213 2.622 10.125.002-.255 2.716h-6.64l.24 2.573h6.182l-.366 3.523-2.91.804-2.956-.81-.188-2.11h-2.61l.29 3.855L12 19.288l5.373-1.53L18.59 4.414z"/></symbol><symbol id="git" viewBox="0 0 24 24"><path d="M23.546 10.93L13.067.452a1.55 1.55 0 00-2.188 0L8.708 2.627l2.76 2.76a1.838 1.838 0 012.327 2.341l2.658 2.66a1.838 1.838 0 011.9 3.039 1.837 1.837 0 01-2.6 0 1.846 1.846 0 01-.404-1.996L12.86 8.955v6.525c.176.086.342.203.488.348a1.848 1.848 0 010 2.6 1.844 1.844 0 01-2.609 0 1.834 1.834 0 010-2.598c.182-.18.387-.316.605-.406V8.835a1.834 1.834 0 01-.996-2.41L7.636 3.7.45 10.881c-.6.605-.6 1.584 0 2.189l10.48 10.477a1.545 1.545 0 002.186 0l10.43-10.43a1.544 1.544 0 000-2.187"/></symbol><symbol id="github" viewBox="0 0 24 24"><path d="M12 .297c-6.63 0-12 5.373-12 12 0 5.303 3.438 9.8 8.205 11.385.6.113.82-.258.82-.577 0-.285-.01-1.04-.015-2.04-3.338.724-4.042-1.61-4.042-1.61C4.422 18.07 3.633 17.7 3.633 17.7c-1.087-.744.084-.729.084-.729 1.205.084 1.838 1.236 1.838 1.236 1.07 1.835 2.809 1.305 3.495.998.108-.776.417-1.305.76-1.605-2.665-.3-5.466-1.332-5.466-5.93 0-1.31.465-2.38 1.235-3.22-.135-.303-.54-1.523.105-3.176 0 0 1.005-.322 3.3 1.23.96-.267 1.98-.399 3-.405 1.02.006 2.04.138 3 .405 2.28-1.552 3.285-1.23 3.285-1.23.645 1.653.24 2.873.12 3.176.765.84 1.23 1.91 1.23 3.22 0 4.61-2.805 5.625-5.475 5.92.42.36.81 1.096.81 2.22 0 1.606-.015 2.896-.015 3.286 0 .315.21.69.825.57C20.565 22.092 24 17.592 24 12.297c0-6.627-5.373-12-12-12"/></symbol><symbol id="gmail" viewBox="0 0 24 24"><path d="M24 4.5v15c0 .85-.65 1.5-1.5 1.5H21V7.387l-9 6.463-9-6.463V21H1.5C.649 21 0 20.35 0 19.5v-15c0-.425.162-.8.431-1.068A1.485 1.485 0 011.5 3H2l10 7.25L22 3h.5c.425 0 .8.162 1.069.432.27.268.431.643.431 1.068z"/></symbol><symbol id="gulp" viewBox="0 0 24 24"><path d="M5.936 4.694c-.336 0-.675.078-1.013.222-.34.145-.676.346-1.007.605a7.133 7.133 0 00-.97.917c-.313.354-.61.745-.887 1.164-.276.42-.533.867-.78 1.32h-.001v.001c-.239.473-.448.96-.63 1.455-.18.496-.324.993-.438 1.497-.11.5-.178.987-.2 1.465a.515.515 0 00-.01.091v.095c0 .261.038.53.075.776v.002l.001.002c.068.262.175.504.31.717a1.7 1.7 0 00.537.518c.217.138.474.207.776.207.263 0 .536-.06.817-.185.279-.125.557-.288.834-.479.268-.192.536-.412.794-.66.207-.192.396-.392.583-.59l-.196.608c-.085.293-.18.576-.257.853-.085.274-.152.52-.209.738-.057.216-.096.362-.096.456v.215c0 .241.025.411.104.518a.398.398 0 00.333.152.435.435 0 00.265-.095c.081-.06.15-.137.219-.224v-.002l.002-.001c.057-.087.115-.18.164-.278.05-.101.078-.19.107-.269v-.001l.067-.24.143-.495.19-.662c.076-.247.142-.495.227-.747l.225-.75c.072-.244.14-.465.203-.661.063-.2.116-.362.16-.493.02-.065.04-.116.054-.154l.014-.032.04.018.018-.048c.076-.218.151-.427.227-.626.076-.2.152-.4.21-.597a3.762 3.762 0 00.22-1.29.637.637 0 00-.05-.255.44.44 0 00-.124-.18.499.499 0 00-.174-.1.622.622 0 00-.19-.03.655.655 0 00-.378.127c-.129.086-.225.229-.297.422v.001l-.55 1.764a3.91 3.91 0 01-.317.513v.001a9.407 9.407 0 01-1.71 1.832 3.53 3.53 0 01-.6.404 1.063 1.063 0 01-.5.146.48.48 0 01-.312-.103.637.637 0 01-.204-.275 1.582 1.582 0 01-.102-.387 3.182 3.182 0 01-.028-.422c0-.413.066-.874.198-1.394.132-.52.312-1.04.539-1.579.227-.54.492-1.06.786-1.571.293-.511.605-.965.926-1.362.32-.396.64-.706.97-.95.327-.244.62-.362.902-.362a.88.88 0 01.497.145c.152.098.29.263.42.496v-.001c.134.259.269.46.385.606.12.15.259.227.408.227a.51.51 0 00.416-.208c.115-.138.17-.327.17-.556 0-.096-.01-.2-.03-.307a.87.87 0 00-.14-.334c-.314-.47-.651-.807-1.01-1.024H7.06a2.216 2.216 0 00-1.125-.317zm10.961.855a.802.802 0 00-.41.12h-.001l-.001.001a.85.85 0 00-.318.43l-1.889 4.758-.417 1.045c-.153.38-.295.76-.447 1.148a4.792 4.792 0 00-.176.551 4.995 4.995 0 01-.257.215c-.207.16-.403.281-.589.365h-.002a1.045 1.045 0 01-.463.129c-.082 0-.137-.02-.172-.053-.035-.033-.056-.084-.056-.166 0-.185.028-.39.084-.615.057-.22.132-.451.217-.683a8.73 8.73 0 01.274-.69l.276-.644c.086-.2.153-.382.21-.534a1.15 1.15 0 00.089-.377.71.71 0 00-.143-.437.474.474 0 00-.39-.19.466.466 0 00-.378.179 1.514 1.514 0 00-.254.42 3.917 3.917 0 00-.201.537c-.056.19-.131.368-.207.535-.113.25-.246.524-.416.826a6.64 6.64 0 01-.565.849c-.207.26-.432.479-.675.654a1.26 1.26 0 01-.75.257c-.083 0-.138-.03-.167-.088a.472.472 0 01-.052-.225c.01-.204.046-.419.112-.643.066-.222.141-.443.226-.66.085-.21.18-.424.283-.625.105-.201.2-.391.294-.56v-.001l.248-.47a2.26 2.26 0 00.135-.33l.001-.002v-.001c.01-.04.021-.09.021-.145a.419.419 0 00-.054-.214v-.001l-.001-.001a.526.526 0 00-.335-.238.65.65 0 00-.588.103c-.132.091-.231.232-.319.426a23.085 23.085 0 00-.79 1.817c-.19.505-.323.914-.418 1.229a4.666 4.666 0 00-.163.7v.001l-.02.231v.002c0 .214.029.4.09.55v.002c.068.147.148.266.249.357a.893.893 0 00.36.191c.132.04.27.059.41.059.311 0 .598-.058.861-.155s.501-.232.714-.396a3.4 3.4 0 00.563-.548c.12-.14.21-.285.3-.427-.04.22-.078.437-.078.614 0 .33.063.57.202.717a.695.695 0 00.523.214c.208 0 .439-.057.694-.17.253-.113.51-.262.77-.446.065-.045.127-.093.19-.141l.005.036a1 1 0 00.15.35h.001l.001.002c.08.099.17.18.291.24a.992.992 0 00.45.091 2 2 0 00.787-.175h.002c.268-.125.537-.279.805-.48a8.85 8.85 0 00.812-.697l.01-.009c-.046.106-.09.212-.138.319-.219.484-.442.972-.674 1.471-.233.5-.466.994-.684 1.488l-.001.003-.001.002a3.93 3.93 0 01-.104.278c-.036.092-.085.188-.115.298v.001c-.037.1-.075.198-.095.306-.03.11-.04.217-.04.315 0 .208.059.367.172.447a.67.67 0 00.398.115c.122 0 .234-.03.335-.08v-.001h.001a.95.95 0 00.263-.22c.076-.09.14-.192.198-.308a3.91 3.91 0 00.154-.365l.002-.004v-.004c.008-.037.037-.121.084-.244l.162-.436.19-.512.199-.522.17-.435c.048-.124.077-.21.095-.255v-.001c.019-.038.048-.095.085-.189l.133-.313.161-.37.172-.38.142-.342.103-.226.001-.001c.085-.17.188-.358.302-.566v-.001c.123-.207.255-.405.396-.612v-.001c.152-.2.302-.397.463-.585.161-.187.33-.347.5-.498.173-.14.346-.262.521-.345a1.14 1.14 0 01.499-.128c.086 0 .143.018.178.039a.135.135 0 01.042.103c0 .08-.043.207-.144.353v.001c-.104.16-.226.33-.377.519-.162.19-.323.389-.503.597-.18.21-.352.419-.514.628a6.18 6.18 0 00-.412.603v.001a1.518 1.518 0 00-.205.53v.007a.193.193 0 01-.004.022c-.003.01-.006.014-.006.035v.057c0 .257.092.465.274.606.183.152.441.22.76.22.349 0 .67-.068.97-.204.298-.134.605-.316.92-.556h.001c.315-.236.64-.517.991-.843.341-.325.739-.685 1.184-1.08a.847.847 0 00.262-.352c.059-.138.089-.275.089-.41a.635.635 0 00-.082-.324.278.278 0 00-.248-.148.369.369 0 00-.164.043c-.053.026-.109.06-.17.101-.104.033.017.063.03.108-.538.481-1.004.887-1.373 1.206-.38.332-.699.588-.946.788a5.893 5.893 0 01-.574.41c-.132.079-.233.117-.289.117-.078 0-.132-.02-.156-.043a.142.142 0 01-.043-.108.22.22 0 01.035-.075 1.55 1.55 0 01.117-.152l.398-.465c.162-.181.324-.381.504-.6.18-.22.35-.447.502-.682.16-.23.285-.467.39-.7.101-.233.156-.455.156-.666a.837.837 0 00-.106-.426.92.92 0 00-.277-.3c-.11-.08-.238-.14-.375-.181h-.001a1.557 1.557 0 00-1.043.073 3.064 3.064 0 00-.598.332 5.677 5.677 0 00-.565.45 9.89 9.89 0 00-.38.378l.036-.176c.015-.073.025-.141.034-.207v-.001c.01-.068.013-.116.013-.149a.529.529 0 00-.126-.373v-.001h-.002c-.087-.09-.222-.129-.4-.129-.122 0-.24.07-.34.19a2.18 2.18 0 00-.263.418 4.225 4.225 0 00-.202.48l-.133.378v.001c-.046.159-.097.321-.15.485a.33.33 0 00-.041.014.33.33 0 00-.136.089l.003-.003c-.118.114-.251.247-.399.389-.147.142-.303.284-.464.426-.162.133-.326.275-.49.407-.162.13-.32.245-.471.345-.15.101-.29.18-.419.241a.776.776 0 01-.309.088c-.06 0-.085-.014-.1-.042h-.001a.311.311 0 01-.032-.155c0-.113.02-.243.064-.39.042-.146.086-.274.13-.385l.028-.03.374-.952c.142-.365.294-.746.465-1.152l.513-1.254c.17-.427.342-.84.503-1.234l.475-1.102c.142-.336.266-.619.37-.848l-.001.002c.059-.117.097-.227.135-.32v-.002a.934.934 0 00.055-.297c0-.196-.061-.35-.18-.443a.6.6 0 00-.384-.133z"/></symbol><symbol id="habr" viewBox="0 0 24 24"><path d="M0 0v24h24V0zm7.025 4h1.633c1.219 0 1.64.029 1.668.113.019.066.028 1.369.028 2.897l-.008 2.783.476-.422c.657-.581 1.212-.787 2.262-.824.694-.019.973.009 1.46.178 1.06.356 1.81 1.087 2.204 2.166.15.421.17.863.197 4.285l.03 3.824h-3.338v-3.121c0-3.075-.01-3.113-.217-3.488-.29-.497-.609-.722-1.106-.778-.853-.093-1.443.197-1.78.89-.16.32-.179.656-.188 3.356-.01 1.65-.03 3.03-.03 3.067-.008.047-.75.074-1.65.074h-1.64v-7.5z"/></symbol><symbol id="home" viewBox="0 0 20 17"><g fill="none" fill-rule="evenodd"><path d="M-2-3h24v24H-2z"/><path d="M8 16v-5h4v5c0 .55.45 1 1 1h3c.55 0 1-.45 1-1V9h1.7c.46 0 .68-.57.33-.87L10.67.6c-.38-.34-.96-.34-1.34 0L.97 8.13c-.34.3-.13.87.33.87H3v7c0 .55.45 1 1 1h3c.55 0 1-.45 1-1z" fill="currentColor"/></g></symbol><symbol id="html5" viewBox="0 0 24 24"><path d="M1.5 0h21l-1.91 21.563L11.977 24l-8.564-2.438L1.5 0zm7.031 9.75l-.232-2.718 10.059.003.23-2.622L5.412 4.41l.698 8.01h9.126l-.326 3.426-2.91.804-2.955-.81-.188-2.11H6.248l.33 4.171L12 19.351l5.379-1.443.744-8.157H8.531z"/></symbol><symbol id="js" viewBox="0 0 24 24"><path d="M0 0h24v24H0V0zm22.034 18.276c-.175-1.095-.888-2.015-3.003-2.873-.736-.345-1.554-.585-1.797-1.14-.091-.33-.105-.51-.046-.705.15-.646.915-.84 1.515-.66.39.12.75.42.976.9 1.034-.676 1.034-.676 1.755-1.125-.27-.42-.404-.601-.586-.78-.63-.705-1.469-1.065-2.834-1.034l-.705.089c-.676.165-1.32.525-1.71 1.005-1.14 1.291-.811 3.541.569 4.471 1.365 1.02 3.361 1.244 3.616 2.205.24 1.17-.87 1.545-1.966 1.41-.811-.18-1.26-.586-1.755-1.336l-1.83 1.051c.21.48.45.689.81 1.109 1.74 1.756 6.09 1.666 6.871-1.004.029-.09.24-.705.074-1.65l.046.067zm-8.983-7.245h-2.248c0 1.938-.009 3.864-.009 5.805 0 1.232.063 2.363-.138 2.711-.33.689-1.18.601-1.566.48-.396-.196-.597-.466-.83-.855-.063-.105-.11-.196-.127-.196l-1.825 1.125c.305.63.75 1.172 1.324 1.517.855.51 2.004.675 3.207.405.783-.226 1.458-.691 1.811-1.411.51-.93.402-2.07.397-3.346.012-2.054 0-4.109 0-6.179l.004-.056z"/></symbol><symbol id="logo" viewBox="0 0 512 512"><path d="M256 .268L120.5 76.893v136.286L0 281.321v153.786l135.5 76.625L256 443.59l120.5 68.143L512 435.107V145.036zM150.5 366.964l90.5-51.178v101.822l-90.5 51.178zm0-255.607l90.5 51.178v101.821l-90.5-51.178zM271 179.5l90.5 51.178v238.107L271 417.607zm105.5 25.196l-90.027-50.911 90.026-50.911 90.028 50.911zM346.027 85.643L256 136.554l-90.028-50.911L256 34.732zM135.5 239.161l90.027 50.91-90.027 50.91-90.027-50.91zM30 315.786l90.5 51.178v101.821L30 417.607zm361.5 152.999V230.679l90.5-51.178v238.107z"/></symbol><symbol id="mail" viewBox="0 0 512 512"><path d="M485.743 85.333H26.257C11.815 85.333 0 97.148 0 111.589V400.41c0 14.44 11.815 26.257 26.257 26.257h459.487c14.44 0 26.257-11.815 26.257-26.257V111.589c-.001-14.441-11.816-26.256-26.258-26.256zm-9.853 19.691L271.104 258.626c-3.682 2.802-9.334 4.555-15.105 4.529-5.77.026-11.421-1.727-15.104-4.529L36.109 105.024H475.89zM366.5 268.761l111.59 137.847c.112.138.249.243.368.368H33.542c.118-.131.256-.23.368-.368L145.5 268.761a9.846 9.846 0 00-1.464-13.851c-4.227-3.419-10.424-2.771-13.844 1.457l-110.5 136.501V117.332l209.394 157.046c7.871 5.862 17.447 8.442 26.912 8.468 9.452-.02 19.036-2.6 26.912-8.468l209.394-157.046v275.534L381.807 256.367c-3.42-4.227-9.623-4.877-13.844-1.457-4.234 3.419-4.884 9.624-1.463 13.851z"/></symbol><symbol id="mongodb" viewBox="0 0 24 24"><path d="M17.18 9.518c-1.263-5.56-4.242-7.387-4.562-8.086C12.266.939 11.885 0 11.885 0l-.005.049v.013h-.001a.574.574 0 00-.004.039v.015h-.002l-.002.026v.026h-.003c-.001.008-.001.018-.003.025v.021h-.002c0 .007 0 .015-.002.021v.02h-.002l-.002.032v.002l-.009.05v.008h-.002l-.003.012v.017h-.003v.022h-.005v.018h-.005v.021h-.004v.019h-.004v.017h-.006v.014h-.004v.018h-.004v.014h-.005v.013H11.8v.015h-.004l-.001.004v.01h-.003l-.001.006v.006h-.002a.044.044 0 00-.002.01l-.01.021v.002a.03.03 0 00-.005.007v.008h-.004v.008h-.005v.008h-.003v.01h-.006v.014h-.004v.004h-.004v.008h-.004v.011h-.004v.008h-.006v.011h-.004v.008h-.005v.008h-.003v.01h-.005v.008h-.004v.006h-.004v.008h-.006V.76h-.004v.006h-.005v.008h-.004v.011h-.005v.004h-.003v.008h-.006v.004h-.004v.01h-.004v.004h-.004v.008h-.005v.006h-.003l-.002.004v.004h-.002l-.002.004v.001h-.001a.016.016 0 01-.004.007v.003h-.001L11.63.87v.001c-.002.002-.007.006-.009.01v.002h-.001l-.003.003v.003h-.002l-.003.003v.001h-.001l-.003.004v.004h-.003l-.002.002v.002h-.002c0 .002-.002.002-.002.003v.003h-.004l-.002.003V.92h-.003v.004h-.004V.93h-.004v.008h-.005V.93h-.005v.004h-.004V.94h-.005v.008h-.005v.004h-.004v.006h-.004v.004h-.004V.97h-.006v.004h-.004V.98h-.005v.004h-.004v.005h-.005v.01h-.002v.004h-.006v.005h-.004v.002h-.004v.004h-.005v.01h-.004v.004h-.005v.004h-.004v.006h-.005v.004h-.005v.004h-.004v.004h-.004v.01h-.004v.005h-.006v.004h-.004v.004h-.005v.006h-.004v.004h-.005v.007h-.004v.004h-.006V1.1h-.002v.004h-.004v.004h-.005v.004h-.004v.006h-.005v.004h-.003l-.001.002v.002h-.002l-.004.004-.004.003v.006h-.004v.005h-.004v.004h-.004v.004h-.003l-.003.003v.003h-.002l-.002.002v.003h-.002c-.005.006-.007.01-.014.016a.366.366 0 00-.051.042l-.022.017v.001h-.001a2.821 2.821 0 01-.049.039v.001l-.074.062V1.34h-.002c-.057.047-.117.1-.186.159V1.5h-.001c-.169.148-.37.338-.595.568l-.015.015-.004.004C9 3.494 6.857 6.426 6.631 11.164c-.02.392-.016.773.006 1.144v.009c.109 1.867.695 3.461 1.428 4.756v.001c.292.516.607.985.926 1.405v.001c1.102 1.455 2.227 2.317 2.514 2.526.441 1.023.4 2.779.4 2.779l.644.215s-.131-1.701.053-2.522c.057-.257.192-.476.349-.662a8.38 8.38 0 00.797-.645c.018-.019.028-.036.044-.054 1.521-1.418 4.362-4.91 3.388-10.599z"/></symbol><symbol id="mysql" viewBox="0 0 24 24"><path d="M16.405 5.676c-.115 0-.193.014-.274.033v.013h.014c.054.104.146.18.214.273.054.107.1.214.154.32l.014-.015c.094-.066.14-.172.14-.333-.04-.047-.046-.094-.08-.14-.04-.067-.126-.1-.18-.153zM5.77 18.87h-.927a50.854 50.854 0 00-.27-4.41h-.008l-1.41 4.41H2.45l-1.4-4.41h-.01a72.892 72.892 0 00-.195 4.41H0c.055-1.966.192-3.81.41-5.53h1.15l1.335 4.064h.008L4.25 13.34h1.095c.242 2.015.384 3.86.428 5.53zm4.017-4.08c-.378 2.045-.876 3.533-1.492 4.46-.482.716-1.01 1.073-1.583 1.073-.153 0-.34-.046-.566-.138v-.494c.11.017.24.026.386.026.268 0 .483-.075.647-.222.197-.18.295-.382.295-.605 0-.155-.077-.47-.23-.944L6.23 14.79h.91l.727 2.36c.164.536.233.91.205 1.123.4-1.064.678-2.227.835-3.483h.88zm12.325 4.08h-2.63v-5.53h.885v4.85h1.745zm-3.32.135l-1.016-.5c.09-.076.177-.158.255-.25.433-.506.648-1.258.648-2.253 0-1.83-.718-2.746-2.155-2.746-.704 0-1.254.232-1.65.697-.43.508-.646 1.256-.646 2.245 0 .972.19 1.686.574 2.14.35.41.877.615 1.583.615.264 0 .506-.033.725-.098l1.325.772.36-.622zM15.5 17.763c-.225-.36-.337-.94-.337-1.736 0-1.393.424-2.09 1.27-2.09.443 0 .77.167.977.5.224.362.336.936.336 1.723 0 1.404-.424 2.108-1.27 2.108-.445 0-.77-.167-.978-.5zm-1.658-.425c0 .47-.172.856-.516 1.156s-.803.45-1.384.45c-.543 0-1.064-.172-1.573-.515l.237-.476c.438.22.833.328 1.19.328.332 0 .593-.073.783-.22a.754.754 0 00.3-.615c0-.33-.23-.61-.648-.845-.388-.213-1.163-.657-1.163-.657-.422-.307-.632-.636-.632-1.177 0-.45.157-.81.47-1.085.315-.278.72-.415 1.22-.415.512 0 .98.136 1.4.41l-.213.476a2.726 2.726 0 00-1.064-.23c-.283 0-.502.068-.654.206a.685.685 0 00-.248.524c0 .328.234.61.666.85.393.215 1.187.67 1.187.67.433.305.648.63.648 1.168zm9.382-5.852c-.535-.014-.95.04-1.297.188-.1.04-.26.04-.274.167.055.053.063.14.11.214.08.134.218.313.346.407.14.11.28.216.427.31.26.16.555.255.81.416.145.094.293.213.44.313.073.05.12.14.214.172v-.02c-.046-.06-.06-.147-.105-.214-.067-.067-.134-.127-.2-.193a3.223 3.223 0 00-.695-.675c-.214-.146-.682-.35-.77-.595l-.013-.014c.146-.013.32-.066.46-.106.227-.06.435-.047.67-.106.106-.027.213-.06.32-.094v-.06c-.12-.12-.21-.283-.334-.395a8.867 8.867 0 00-1.104-.823c-.21-.134-.476-.22-.697-.334-.08-.04-.214-.06-.26-.127-.12-.146-.19-.34-.275-.514a17.69 17.69 0 01-.547-1.163c-.12-.262-.193-.523-.34-.763-.69-1.137-1.437-1.826-2.586-2.5-.247-.14-.543-.2-.856-.274-.167-.008-.334-.02-.5-.027-.11-.047-.216-.174-.31-.235-.38-.24-1.364-.76-1.644-.072-.18.434.267.862.422 1.082.115.153.26.328.34.5.047.116.06.235.107.356.106.294.207.622.347.897.073.14.153.287.247.413.054.073.146.107.167.227-.094.136-.1.334-.154.5-.24.757-.146 1.693.194 2.25.107.166.362.534.703.393.3-.12.234-.5.32-.835.02-.08.007-.133.048-.187v.015c.094.188.188.367.274.555.206.328.566.668.867.895.16.12.287.328.487.402v-.02h-.015c-.043-.058-.1-.086-.154-.133a3.445 3.445 0 01-.35-.4 8.76 8.76 0 01-.747-1.218c-.11-.21-.202-.436-.29-.643-.04-.08-.04-.2-.107-.24-.1.146-.247.273-.32.453-.127.288-.14.642-.188 1.01-.027.007-.014 0-.027.014-.214-.052-.287-.274-.367-.46-.2-.475-.233-1.238-.06-1.785.047-.14.247-.582.167-.716-.042-.127-.174-.2-.247-.303a2.478 2.478 0 01-.24-.427c-.16-.374-.24-.788-.414-1.162-.08-.173-.22-.354-.334-.513-.127-.18-.267-.307-.368-.52-.033-.073-.08-.194-.027-.274.014-.054.042-.075.094-.09.088-.072.335.022.422.062.247.1.455.194.662.334.094.066.195.193.315.226h.14c.214.047.455.014.655.073.355.114.675.28.962.46a5.953 5.953 0 012.085 2.286c.08.154.115.295.188.455.14.33.313.663.455.982.14.315.275.636.476.897.1.14.502.213.682.286.133.06.34.115.46.188.23.14.454.3.67.454.11.076.443.243.463.378z"/></symbol><symbol id="nodejs" viewBox="0 0 24 24"><path d="M11.998 24c-.321 0-.641-.084-.922-.247L8.14 22.016c-.438-.245-.224-.332-.08-.383.585-.203.703-.25 1.328-.604.065-.037.151-.023.218.017l2.256 1.339a.29.29 0 00.272 0l8.795-5.076a.277.277 0 00.134-.238V6.921a.283.283 0 00-.137-.242l-8.791-5.072a.278.278 0 00-.271 0L3.075 6.68a.284.284 0 00-.139.241v10.15a.27.27 0 00.139.235l2.409 1.392c1.307.654 2.108-.116 2.108-.89V7.787c0-.142.114-.253.256-.253h1.115c.139 0 .255.112.255.253v10.021c0 1.745-.95 2.745-2.604 2.745-.508 0-.909 0-2.026-.551L2.28 18.675a1.856 1.856 0 01-.922-1.604V6.921c0-.659.353-1.275.922-1.603L11.075.236a1.925 1.925 0 011.848 0l8.794 5.082c.57.329.924.944.924 1.603v10.15a1.86 1.86 0 01-.924 1.604l-8.794 5.078c-.28.163-.599.247-.925.247zm7.101-10.007c0-1.9-1.284-2.406-3.987-2.763-2.731-.361-3.009-.548-3.009-1.187 0-.528.235-1.233 2.258-1.233 1.807 0 2.473.389 2.747 1.607a.254.254 0 00.247.199h1.141a.26.26 0 00.186-.081.257.257 0 00.067-.196c-.177-2.098-1.571-3.076-4.388-3.076-2.508 0-4.004 1.058-4.004 2.833 0 1.925 1.488 2.457 3.895 2.695 2.88.282 3.103.703 3.103 1.269 0 .983-.789 1.402-2.642 1.402-2.327 0-2.839-.584-3.011-1.742a.255.255 0 00-.253-.215h-1.137a.252.252 0 00-.254.253c0 1.482.806 3.248 4.655 3.248 2.788.001 4.386-1.096 4.386-3.013z"/></symbol><symbol id="php" viewBox="0 0 24 24"><path d="M7.01 10.207h-.944l-.515 2.648h.838c.556 0 .97-.105 1.242-.314.272-.21.455-.559.55-1.049.092-.47.05-.802-.124-.995-.175-.193-.523-.29-1.047-.29zM12 5.688C5.373 5.688 0 8.514 0 12s5.373 6.313 12 6.313S24 15.486 24 12c0-3.486-5.373-6.312-12-6.312zm-3.26 7.451c-.261.25-.575.438-.917.551-.336.108-.765.164-1.285.164H5.357l-.327 1.681H3.652l1.23-6.326h2.65c.797 0 1.378.209 1.744.628.366.418.476 1.002.33 1.752a2.836 2.836 0 01-.305.847c-.143.255-.33.49-.561.703zm4.024.715l.543-2.799c.063-.318.039-.536-.068-.651-.107-.116-.336-.174-.687-.174H11.46l-.704 3.625H9.388l1.23-6.327h1.367l-.327 1.682h1.218c.767 0 1.295.134 1.586.401s.378.7.263 1.299l-.572 2.944h-1.389zm7.597-2.265a2.782 2.782 0 01-.305.847c-.143.255-.33.49-.561.703a2.44 2.44 0 01-.917.551c-.336.108-.765.164-1.286.164h-1.18l-.327 1.682h-1.378l1.23-6.326h2.649c.797 0 1.378.209 1.744.628.366.417.477 1.001.331 1.751zm-2.595-1.382h-.943l-.516 2.648h.838c.557 0 .971-.105 1.242-.314.272-.21.455-.559.551-1.049.092-.47.049-.802-.125-.995s-.524-.29-1.047-.29z"/></symbol><symbol id="portfolio" viewBox="0 0 24 24"><path fill-rule="evenodd" clip-rule="evenodd" d="M3 5a1 1 0 00-1 1v9.288l1.558-3.506A3 3 0 016.3 10H19V9a1 1 0 00-1-1h-7a1 1 0 01-.707-.293L7.879 5.293A1 1 0 007.172 5H3zm18 5.001c2.128.052 3.535 2.257 2.664 4.217l-2.222 5A3 3 0 0118.7 21H3a3 3 0 01-3-3V6a3 3 0 013-3h4.172a3 3 0 012.12.879L11.415 6H18a3 3 0 013 3v1.001zM6.3 12a1 1 0 00-.914.594L2.58 18.908A1 1 0 003 19h15.7a1 1 0 00.914-.594l2.222-5A1 1 0 0020.923 12H6.3z" fill="currentColor"/></symbol><symbol id="react" viewBox="0 0 24 24"><path d="M12 9.861a2.139 2.139 0 100 4.278 2.139 2.139 0 100-4.278zm-5.992 6.394l-.472-.12C2.018 15.246 0 13.737 0 11.996s2.018-3.25 5.536-4.139l.472-.119.133.468a23.53 23.53 0 001.363 3.578l.101.213-.101.213a23.307 23.307 0 00-1.363 3.578l-.133.467zM5.317 8.95c-2.674.751-4.315 1.9-4.315 3.046 0 1.145 1.641 2.294 4.315 3.046a24.95 24.95 0 011.182-3.046A24.752 24.752 0 015.317 8.95zm12.675 7.305l-.133-.469a23.357 23.357 0 00-1.364-3.577l-.101-.213.101-.213a23.42 23.42 0 001.364-3.578l.133-.468.473.119c3.517.889 5.535 2.398 5.535 4.14s-2.018 3.25-5.535 4.139l-.473.12zm-.491-4.259c.48 1.039.877 2.06 1.182 3.046 2.675-.752 4.315-1.901 4.315-3.046 0-1.146-1.641-2.294-4.315-3.046a24.788 24.788 0 01-1.182 3.046zM5.31 8.945l-.133-.467C4.188 4.992 4.488 2.494 6 1.622c1.483-.856 3.864.155 6.359 2.716l.34.349-.34.349a23.552 23.552 0 00-2.422 2.967l-.135.193-.235.02a23.657 23.657 0 00-3.785.61l-.472.119zm1.896-6.63c-.268 0-.505.058-.705.173-.994.573-1.17 2.565-.485 5.253a25.122 25.122 0 013.233-.501 24.847 24.847 0 012.052-2.544c-1.56-1.519-3.037-2.381-4.095-2.381zm9.589 20.362c-.001 0-.001 0 0 0-1.425 0-3.255-1.073-5.154-3.023l-.34-.349.34-.349a23.53 23.53 0 002.421-2.968l.135-.193.234-.02a23.63 23.63 0 003.787-.609l.472-.119.134.468c.987 3.484.688 5.983-.824 6.854a2.38 2.38 0 01-1.205.308zm-4.096-3.381c1.56 1.519 3.037 2.381 4.095 2.381h.001c.267 0 .505-.058.704-.173.994-.573 1.171-2.566.485-5.254a25.02 25.02 0 01-3.234.501 24.674 24.674 0 01-2.051 2.545zM18.69 8.945l-.472-.119a23.479 23.479 0 00-3.787-.61l-.234-.02-.135-.193a23.414 23.414 0 00-2.421-2.967l-.34-.349.34-.349C14.135 1.778 16.515.767 18 1.622c1.512.872 1.812 3.37.824 6.855l-.134.468zM14.75 7.24c1.142.104 2.227.273 3.234.501.686-2.688.509-4.68-.485-5.253-.988-.571-2.845.304-4.8 2.208A24.849 24.849 0 0114.75 7.24zM7.206 22.677A2.38 2.38 0 016 22.369c-1.512-.871-1.812-3.369-.823-6.854l.132-.468.472.119c1.155.291 2.429.496 3.785.609l.235.02.134.193a23.596 23.596 0 002.422 2.968l.34.349-.34.349c-1.898 1.95-3.728 3.023-5.151 3.023zm-1.19-6.427c-.686 2.688-.509 4.681.485 5.254.987.563 2.843-.305 4.8-2.208a24.998 24.998 0 01-2.052-2.545 24.976 24.976 0 01-3.233-.501zm5.984.628c-.823 0-1.669-.036-2.516-.106l-.235-.02-.135-.193a30.388 30.388 0 01-1.35-2.122 30.354 30.354 0 01-1.166-2.228l-.1-.213.1-.213a30.3 30.3 0 011.166-2.228c.414-.716.869-1.43 1.35-2.122l.135-.193.235-.02a29.785 29.785 0 015.033 0l.234.02.134.193a30.006 30.006 0 012.517 4.35l.101.213-.101.213a29.6 29.6 0 01-2.517 4.35l-.134.193-.234.02c-.847.07-1.694.106-2.517.106zm-2.197-1.084c1.48.111 2.914.111 4.395 0a29.006 29.006 0 002.196-3.798 28.585 28.585 0 00-2.197-3.798 29.031 29.031 0 00-4.394 0 28.477 28.477 0 00-2.197 3.798 29.114 29.114 0 002.197 3.798z"/></symbol><symbol id="sass" viewBox="0 0 24 24"><path d="M12 0c6.627 0 12 5.373 12 12s-5.373 12-12 12S0 18.627 0 12 5.373 0 12 0zM9.615 15.998c.175.645.156 1.248-.024 1.792l-.065.18c-.024.061-.052.12-.078.176-.14.29-.326.56-.555.81-.698.759-1.672 1.047-2.09.805-.45-.262-.226-1.335.584-2.19.871-.918 2.12-1.509 2.12-1.509v-.003l.108-.061zm9.911-10.861c-.542-2.133-4.077-2.834-7.422-1.645-1.989.707-4.144 1.818-5.693 3.267C4.568 8.48 4.275 9.98 4.396 10.607c.427 2.211 3.457 3.657 4.703 4.73v.006c-.367.18-3.056 1.529-3.686 2.925-.675 1.47.105 2.521.615 2.655 1.575.436 3.195-.36 4.065-1.649.84-1.261.766-2.881.404-3.676.496-.135 1.08-.195 1.83-.104 2.101.24 2.521 1.56 2.43 2.1-.09.539-.523.854-.674.944-.15.091-.195.12-.181.181.015.09.091.09.21.075.165-.03 1.096-.45 1.141-1.471.045-1.29-1.186-2.729-3.375-2.7-.9.016-1.471.091-1.875.256a.362.362 0 00-.105-.105c-1.35-1.455-3.855-2.475-3.75-4.41.03-.705.285-2.564 4.8-4.814 3.705-1.846 6.661-1.335 7.171-.21.733 1.604-1.576 4.59-5.431 5.024-1.47.165-2.235-.404-2.431-.615-.209-.225-.239-.24-.314-.194-.12.06-.045.255 0 .375.12.3.585.825 1.396 1.095.704.225 2.43.359 4.5-.45 2.324-.899 4.139-3.405 3.614-5.505l.073.067z"/></symbol><symbol id="skills" viewBox="0 0 32 32"><style/><path d="M14 3H4c-.6 0-1 .4-1 1v10c0 .6.4 1 1 1h10c.6 0 1-.4 1-1V4c0-.6-.4-1-1-1zm0 14H4c-.6 0-1 .4-1 1v10c0 .6.4 1 1 1h10c.6 0 1-.4 1-1V18c0-.6-.4-1-1-1zM28 3H18c-.6 0-1 .4-1 1v10c0 .6.4 1 1 1h10c.6 0 1-.4 1-1V4c0-.6-.4-1-1-1zm-1 19h-3v-3c0-.6-.4-1-1-1s-1 .4-1 1v3h-3c-.6 0-1 .4-1 1s.4 1 1 1h3v3c0 .6.4 1 1 1s1-.4 1-1v-3h3c.6 0 1-.4 1-1s-.4-1-1-1z" fill="currentColor"/></symbol><symbol id="stackoverflow" viewBox="0 0 24 24"><path d="M18.986 21.865v-6.404h2.134V24H1.844v-8.539h2.13v6.404h15.012zM6.111 19.731H16.85v-2.137H6.111v2.137zm.259-4.852l10.48 2.189.451-2.07-10.478-2.187-.453 2.068zm1.359-5.056l9.705 4.53.903-1.95-9.706-4.53-.902 1.936v.014zm2.715-4.785l8.217 6.855 1.359-1.62-8.216-6.853-1.35 1.617-.01.001zM15.751 0l-1.746 1.294 6.405 8.604 1.746-1.294L15.749 0h.002z"/></symbol><symbol id="telegram" viewBox="0 0 24 24"><path d="M23.91 3.79L20.3 20.84c-.25 1.21-.98 1.5-2 .94l-5.5-4.07-2.66 2.57c-.3.3-.55.56-1.1.56-.72 0-.6-.27-.84-.95L6.3 13.7.85 12c-1.18-.35-1.19-1.16.26-1.75l21.26-8.2c.97-.43 1.9.24 1.53 1.73z"/></symbol><symbol id="twitter" viewBox="0 0 512 512"><path d="M512 97.248c-19.04 8.352-39.328 13.888-60.48 16.576 21.76-12.992 38.368-33.408 46.176-58.016-20.288 12.096-42.688 20.64-66.56 25.408C411.872 60.704 384.416 48 354.464 48c-58.112 0-104.896 47.168-104.896 104.992 0 8.32.704 16.32 2.432 23.936-87.264-4.256-164.48-46.08-216.352-109.792-9.056 15.712-14.368 33.696-14.368 53.056 0 36.352 18.72 68.576 46.624 87.232-16.864-.32-33.408-5.216-47.424-12.928v1.152c0 51.008 36.384 93.376 84.096 103.136-8.544 2.336-17.856 3.456-27.52 3.456-6.72 0-13.504-.384-19.872-1.792 13.6 41.568 52.192 72.128 98.08 73.12-35.712 27.936-81.056 44.768-130.144 44.768-8.608 0-16.864-.384-25.12-1.44C46.496 446.88 101.6 464 161.024 464c193.152 0 298.752-160 298.752-298.688 0-4.64-.16-9.12-.384-13.568 20.832-14.784 38.336-33.248 52.608-54.496z"/></symbol><symbol id="vue" viewBox="0 0 24 24"><path d="M24 1.61h-9.94L12 5.16 9.94 1.61H0l12 20.78zM12 14.08L5.16 2.23h4.43L12 6.41l2.41-4.18h4.43z"/></symbol><symbol id="webpack" viewBox="0 0 24 24"><path d="M21.016 18.12L12.35 23v-3.8l5.399-2.957 3.266 1.877zm.592-.534V7.38l-3.17 1.821v6.56l3.17 1.824zm-18.682.534L11.59 23v-3.8l-5.398-2.957-3.266 1.877zm-.593-.534V7.38l3.17 1.821v6.56l-3.17 1.824zM2.704 6.72l8.886-5.005v3.674L5.897 8.507l-.043.025-3.15-1.812zm18.534 0L12.35 1.715v3.674l5.693 3.118.043.025 3.15-1.812zM11.59 18.335l-5.327-2.916V9.642l5.326 3.062v5.63zm.76 0l5.326-2.916V9.642l-5.326 3.062v5.63zM6.625 8.973l5.347-2.928 5.347 2.928-5.347 3.075-5.347-3.075z"/></symbol></svg>