<svg xmlns="http://www.w3.org/2000/svg" viewBox="0 0 47.855 47.855" fill="#fff"><path d="M23.928 19.371c-5.675 0-10.866 2.886-13.885 7.719a2.5 2.5 0 004.241 2.648c2.099-3.361 5.705-5.367 9.644-5.367s7.544 2.006 9.644 5.367a2.497 2.497 0 003.444.797 2.5 2.5 0 00.796-3.445c-3.018-4.833-8.208-7.719-13.884-7.719z"/><path d="M47.476 21.07C42.365 12.883 33.562 7.996 23.928 7.996S5.492 12.883.38 21.07a2.5 2.5 0 104.241 2.648c4.192-6.714 11.41-10.722 19.307-10.722s15.115 4.008 19.307 10.722a2.498 2.498 0 003.444.796 2.5 2.5 0 00.797-3.444z"/><circle cx="23.928" cy="35.745" r="4.114"/></svg>