<?xml version="1.0" standalone="no"?>
<svg xmlns="http://www.w3.org/2000/svg" viewBox="0 0 1440 320">
  <path fill="#fff" fill-opacity="1" d="M0,32L26.7,26.7C53.3,21,107,11,160,42.7C213.3,75,267,149,320,149.3C373.3,149,427,75,480,85.3C533.3,96,587,192,640,229.3C693.3,267,747,245,800,240C853.3,235,907,245,960,213.3C1013.3,181,1067,107,1120,90.7C1173.3,75,1227,117,1280,128C1333.3,139,1387,117,1413,106.7L1440,96L1440,320L1413.3,320C1386.7,320,1333,320,1280,320C1226.7,320,1173,320,1120,320C1066.7,320,1013,320,960,320C906.7,320,853,320,800,320C746.7,320,693,320,640,320C586.7,320,533,320,480,320C426.7,320,373,320,320,320C266.7,320,213,320,160,320C106.7,320,53,320,27,320L0,320Z"></path>
</svg>
